<mxfile host="app.diagrams.net" modified="2020-07-31T10:19:52.230Z" agent="5.0 (Windows NT 10.0; Win64; x64) AppleWebKit/537.36 (KHTML, like Gecko) Chrome/84.0.4147.105 Safari/537.36 Edg/84.0.522.49" etag="CzsnzFGP25_2H6SgvWSe" version="13.5.4" type="github">
  <diagram id="Xlm3U4zURAzkrY1wO4Q9" name="Page-1">
    <mxGraphModel dx="2085" dy="4150" grid="1" gridSize="10" guides="1" tooltips="1" connect="1" arrows="1" fold="1" page="1" pageScale="1" pageWidth="3000" pageHeight="3000" math="0" shadow="0" extFonts="Permanent Marker^https://fonts.googleapis.com/css?family=Permanent+Marker">
      <root>
        <mxCell id="0" />
        <mxCell id="1" parent="0" />
        <mxCell id="3UG25BrDPWTe1O-57nNa-1" value="USER" style="rounded=0;whiteSpace=wrap;html=1;fontSize=25;" vertex="1" parent="1">
          <mxGeometry x="340" y="-880" width="160" height="80" as="geometry" />
        </mxCell>
        <mxCell id="3UG25BrDPWTe1O-57nNa-29" style="edgeStyle=none;rounded=0;orthogonalLoop=1;jettySize=auto;html=1;entryX=0;entryY=0.75;entryDx=0;entryDy=0;endArrow=none;endFill=0;fontSize=25;" edge="1" parent="1" source="3UG25BrDPWTe1O-57nNa-2" target="3UG25BrDPWTe1O-57nNa-1">
          <mxGeometry relative="1" as="geometry" />
        </mxCell>
        <mxCell id="3UG25BrDPWTe1O-57nNa-2" value="remenber_token" style="ellipse;html=1;fontSize=14;whiteSpace=wrap;" vertex="1" parent="1">
          <mxGeometry x="120" y="-770" width="120" height="80" as="geometry" />
        </mxCell>
        <mxCell id="3UG25BrDPWTe1O-57nNa-27" style="edgeStyle=none;rounded=0;orthogonalLoop=1;jettySize=auto;html=1;endArrow=none;endFill=0;fontSize=25;" edge="1" parent="1" source="3UG25BrDPWTe1O-57nNa-4" target="3UG25BrDPWTe1O-57nNa-1">
          <mxGeometry relative="1" as="geometry" />
        </mxCell>
        <mxCell id="3UG25BrDPWTe1O-57nNa-4" value="update_at" style="ellipse;whiteSpace=wrap;html=1;fontSize=25;" vertex="1" parent="1">
          <mxGeometry x="100" y="-960" width="120" height="80" as="geometry" />
        </mxCell>
        <mxCell id="3UG25BrDPWTe1O-57nNa-22" style="edgeStyle=none;rounded=0;orthogonalLoop=1;jettySize=auto;html=1;entryX=1;entryY=0.25;entryDx=0;entryDy=0;endArrow=none;endFill=0;fontSize=25;" edge="1" parent="1" source="3UG25BrDPWTe1O-57nNa-5" target="3UG25BrDPWTe1O-57nNa-1">
          <mxGeometry relative="1" as="geometry" />
        </mxCell>
        <mxCell id="3UG25BrDPWTe1O-57nNa-5" value="phone" style="ellipse;whiteSpace=wrap;html=1;fontSize=25;" vertex="1" parent="1">
          <mxGeometry x="660" y="-950" width="120" height="80" as="geometry" />
        </mxCell>
        <mxCell id="3UG25BrDPWTe1O-57nNa-26" style="edgeStyle=none;rounded=0;orthogonalLoop=1;jettySize=auto;html=1;entryX=0.25;entryY=0;entryDx=0;entryDy=0;endArrow=none;endFill=0;fontSize=25;" edge="1" parent="1" source="3UG25BrDPWTe1O-57nNa-6" target="3UG25BrDPWTe1O-57nNa-1">
          <mxGeometry relative="1" as="geometry" />
        </mxCell>
        <mxCell id="3UG25BrDPWTe1O-57nNa-6" value="id" style="ellipse;whiteSpace=wrap;html=1;fontSize=25;fontStyle=4" vertex="1" parent="1">
          <mxGeometry x="190" y="-1040" width="120" height="80" as="geometry" />
        </mxCell>
        <mxCell id="3UG25BrDPWTe1O-57nNa-28" style="edgeStyle=none;rounded=0;orthogonalLoop=1;jettySize=auto;html=1;entryX=0;entryY=0.5;entryDx=0;entryDy=0;endArrow=none;endFill=0;fontSize=25;" edge="1" parent="1" source="3UG25BrDPWTe1O-57nNa-8" target="3UG25BrDPWTe1O-57nNa-1">
          <mxGeometry relative="1" as="geometry" />
        </mxCell>
        <mxCell id="3UG25BrDPWTe1O-57nNa-8" value="create_at" style="ellipse;whiteSpace=wrap;html=1;fontSize=25;" vertex="1" parent="1">
          <mxGeometry x="80" y="-860" width="120" height="80" as="geometry" />
        </mxCell>
        <mxCell id="3UG25BrDPWTe1O-57nNa-25" style="edgeStyle=none;rounded=0;orthogonalLoop=1;jettySize=auto;html=1;entryX=0.5;entryY=0;entryDx=0;entryDy=0;endArrow=none;endFill=0;fontSize=25;" edge="1" parent="1" source="3UG25BrDPWTe1O-57nNa-9" target="3UG25BrDPWTe1O-57nNa-1">
          <mxGeometry relative="1" as="geometry" />
        </mxCell>
        <mxCell id="3UG25BrDPWTe1O-57nNa-9" value="name" style="ellipse;whiteSpace=wrap;html=1;fontSize=25;" vertex="1" parent="1">
          <mxGeometry x="320" y="-1060" width="120" height="80" as="geometry" />
        </mxCell>
        <mxCell id="3UG25BrDPWTe1O-57nNa-24" style="edgeStyle=none;rounded=0;orthogonalLoop=1;jettySize=auto;html=1;entryX=0.75;entryY=0;entryDx=0;entryDy=0;endArrow=none;endFill=0;fontSize=25;" edge="1" parent="1" source="3UG25BrDPWTe1O-57nNa-10" target="3UG25BrDPWTe1O-57nNa-1">
          <mxGeometry relative="1" as="geometry" />
        </mxCell>
        <mxCell id="3UG25BrDPWTe1O-57nNa-10" value="usermane" style="ellipse;whiteSpace=wrap;html=1;fontSize=25;" vertex="1" parent="1">
          <mxGeometry x="450" y="-1060" width="120" height="80" as="geometry" />
        </mxCell>
        <mxCell id="3UG25BrDPWTe1O-57nNa-30" style="edgeStyle=none;rounded=0;orthogonalLoop=1;jettySize=auto;html=1;entryX=0.181;entryY=1.038;entryDx=0;entryDy=0;entryPerimeter=0;endArrow=none;endFill=0;fontSize=25;" edge="1" parent="1" source="3UG25BrDPWTe1O-57nNa-11" target="3UG25BrDPWTe1O-57nNa-1">
          <mxGeometry relative="1" as="geometry" />
        </mxCell>
        <mxCell id="3UG25BrDPWTe1O-57nNa-11" value="rode" style="ellipse;whiteSpace=wrap;html=1;fontSize=25;" vertex="1" parent="1">
          <mxGeometry x="230" y="-720" width="120" height="80" as="geometry" />
        </mxCell>
        <mxCell id="3UG25BrDPWTe1O-57nNa-31" style="edgeStyle=none;rounded=0;orthogonalLoop=1;jettySize=auto;html=1;endArrow=none;endFill=0;fontSize=25;entryX=0.5;entryY=1;entryDx=0;entryDy=0;" edge="1" parent="1" source="3UG25BrDPWTe1O-57nNa-12" target="3UG25BrDPWTe1O-57nNa-1">
          <mxGeometry relative="1" as="geometry">
            <mxPoint x="419.9999999999998" y="-790" as="targetPoint" />
          </mxGeometry>
        </mxCell>
        <mxCell id="3UG25BrDPWTe1O-57nNa-12" value="gender" style="ellipse;whiteSpace=wrap;html=1;fontSize=25;" vertex="1" parent="1">
          <mxGeometry x="370" y="-700" width="120" height="80" as="geometry" />
        </mxCell>
        <mxCell id="3UG25BrDPWTe1O-57nNa-13" value="birthday" style="ellipse;whiteSpace=wrap;html=1;fontSize=25;" vertex="1" parent="1">
          <mxGeometry x="510" y="-720" width="120" height="80" as="geometry" />
        </mxCell>
        <mxCell id="3UG25BrDPWTe1O-57nNa-20" style="rounded=0;orthogonalLoop=1;jettySize=auto;html=1;entryX=1;entryY=0.75;entryDx=0;entryDy=0;fontSize=25;endArrow=none;endFill=0;" edge="1" parent="1" source="3UG25BrDPWTe1O-57nNa-14" target="3UG25BrDPWTe1O-57nNa-1">
          <mxGeometry relative="1" as="geometry" />
        </mxCell>
        <mxCell id="3UG25BrDPWTe1O-57nNa-14" value="address" style="ellipse;whiteSpace=wrap;html=1;fontSize=25;" vertex="1" parent="1">
          <mxGeometry x="620" y="-780" width="120" height="80" as="geometry" />
        </mxCell>
        <mxCell id="3UG25BrDPWTe1O-57nNa-21" style="edgeStyle=none;rounded=0;orthogonalLoop=1;jettySize=auto;html=1;entryX=1;entryY=0.5;entryDx=0;entryDy=0;endArrow=none;endFill=0;fontSize=25;" edge="1" parent="1" source="3UG25BrDPWTe1O-57nNa-15" target="3UG25BrDPWTe1O-57nNa-1">
          <mxGeometry relative="1" as="geometry" />
        </mxCell>
        <mxCell id="3UG25BrDPWTe1O-57nNa-15" value="passwword" style="ellipse;whiteSpace=wrap;html=1;fontSize=20;" vertex="1" parent="1">
          <mxGeometry x="670" y="-860" width="120" height="80" as="geometry" />
        </mxCell>
        <mxCell id="3UG25BrDPWTe1O-57nNa-23" style="edgeStyle=none;rounded=0;orthogonalLoop=1;jettySize=auto;html=1;entryX=0.869;entryY=0.002;entryDx=0;entryDy=0;entryPerimeter=0;endArrow=none;endFill=0;fontSize=25;" edge="1" parent="1" source="3UG25BrDPWTe1O-57nNa-16" target="3UG25BrDPWTe1O-57nNa-1">
          <mxGeometry relative="1" as="geometry" />
        </mxCell>
        <mxCell id="3UG25BrDPWTe1O-57nNa-16" value="email" style="ellipse;whiteSpace=wrap;html=1;fontSize=25;" vertex="1" parent="1">
          <mxGeometry x="570" y="-1020" width="120" height="80" as="geometry" />
        </mxCell>
        <mxCell id="3UG25BrDPWTe1O-57nNa-19" value="" style="endArrow=none;html=1;fontSize=25;entryX=0.25;entryY=0.125;entryDx=0;entryDy=0;entryPerimeter=0;" edge="1" parent="1" source="3UG25BrDPWTe1O-57nNa-1" target="3UG25BrDPWTe1O-57nNa-13">
          <mxGeometry width="50" height="50" relative="1" as="geometry">
            <mxPoint x="540" y="-690" as="sourcePoint" />
            <mxPoint x="560" y="-700" as="targetPoint" />
          </mxGeometry>
        </mxCell>
        <mxCell id="3UG25BrDPWTe1O-57nNa-32" value="USER" style="rounded=0;whiteSpace=wrap;html=1;fontSize=25;" vertex="1" parent="1">
          <mxGeometry x="340" y="-320" width="160" height="80" as="geometry" />
        </mxCell>
        <mxCell id="3UG25BrDPWTe1O-57nNa-35" style="edgeStyle=none;rounded=0;orthogonalLoop=1;jettySize=auto;html=1;endArrow=none;endFill=0;fontSize=25;" edge="1" source="3UG25BrDPWTe1O-57nNa-36" target="3UG25BrDPWTe1O-57nNa-32" parent="1">
          <mxGeometry relative="1" as="geometry" />
        </mxCell>
        <mxCell id="3UG25BrDPWTe1O-57nNa-36" value="update_at" style="ellipse;whiteSpace=wrap;html=1;fontSize=25;" vertex="1" parent="1">
          <mxGeometry x="110" y="-230" width="120" height="80" as="geometry" />
        </mxCell>
        <mxCell id="3UG25BrDPWTe1O-57nNa-37" style="edgeStyle=none;rounded=0;orthogonalLoop=1;jettySize=auto;html=1;entryX=1;entryY=0.25;entryDx=0;entryDy=0;endArrow=none;endFill=0;fontSize=25;" edge="1" source="3UG25BrDPWTe1O-57nNa-38" target="3UG25BrDPWTe1O-57nNa-32" parent="1">
          <mxGeometry relative="1" as="geometry" />
        </mxCell>
        <mxCell id="3UG25BrDPWTe1O-57nNa-38" value="phone" style="ellipse;whiteSpace=wrap;html=1;fontSize=25;" vertex="1" parent="1">
          <mxGeometry x="640" y="-330" width="120" height="80" as="geometry" />
        </mxCell>
        <mxCell id="3UG25BrDPWTe1O-57nNa-39" style="edgeStyle=none;rounded=0;orthogonalLoop=1;jettySize=auto;html=1;entryX=0;entryY=0.25;entryDx=0;entryDy=0;endArrow=none;endFill=0;fontSize=25;" edge="1" source="3UG25BrDPWTe1O-57nNa-40" target="3UG25BrDPWTe1O-57nNa-32" parent="1">
          <mxGeometry relative="1" as="geometry" />
        </mxCell>
        <mxCell id="3UG25BrDPWTe1O-57nNa-40" value="id" style="ellipse;whiteSpace=wrap;html=1;fontSize=25;fontStyle=4" vertex="1" parent="1">
          <mxGeometry x="130" y="-390" width="120" height="80" as="geometry" />
        </mxCell>
        <mxCell id="3UG25BrDPWTe1O-57nNa-42" style="edgeStyle=none;rounded=0;orthogonalLoop=1;jettySize=auto;html=1;entryX=0.5;entryY=0;entryDx=0;entryDy=0;endArrow=none;endFill=0;fontSize=25;" edge="1" source="3UG25BrDPWTe1O-57nNa-43" target="3UG25BrDPWTe1O-57nNa-32" parent="1">
          <mxGeometry relative="1" as="geometry" />
        </mxCell>
        <mxCell id="3UG25BrDPWTe1O-57nNa-43" value="name" style="ellipse;whiteSpace=wrap;html=1;fontSize=25;" vertex="1" parent="1">
          <mxGeometry x="250" y="-490" width="120" height="80" as="geometry" />
        </mxCell>
        <mxCell id="3UG25BrDPWTe1O-57nNa-44" style="edgeStyle=none;rounded=0;orthogonalLoop=1;jettySize=auto;html=1;entryX=0.75;entryY=0;entryDx=0;entryDy=0;endArrow=none;endFill=0;fontSize=25;" edge="1" source="3UG25BrDPWTe1O-57nNa-45" target="3UG25BrDPWTe1O-57nNa-32" parent="1">
          <mxGeometry relative="1" as="geometry" />
        </mxCell>
        <mxCell id="3UG25BrDPWTe1O-57nNa-45" value="usermane" style="ellipse;whiteSpace=wrap;html=1;fontSize=25;" vertex="1" parent="1">
          <mxGeometry x="430" y="-500" width="120" height="80" as="geometry" />
        </mxCell>
        <mxCell id="3UG25BrDPWTe1O-57nNa-50" value="birthday" style="ellipse;whiteSpace=wrap;html=1;fontSize=25;" vertex="1" parent="1">
          <mxGeometry x="260" y="-160" width="120" height="80" as="geometry" />
        </mxCell>
        <mxCell id="3UG25BrDPWTe1O-57nNa-51" style="rounded=0;orthogonalLoop=1;jettySize=auto;html=1;entryX=0.75;entryY=1;entryDx=0;entryDy=0;fontSize=25;endArrow=none;endFill=0;" edge="1" source="3UG25BrDPWTe1O-57nNa-52" target="3UG25BrDPWTe1O-57nNa-32" parent="1">
          <mxGeometry relative="1" as="geometry" />
        </mxCell>
        <mxCell id="3UG25BrDPWTe1O-57nNa-52" value="address" style="ellipse;whiteSpace=wrap;html=1;fontSize=25;" vertex="1" parent="1">
          <mxGeometry x="410" y="-160" width="120" height="80" as="geometry" />
        </mxCell>
        <mxCell id="3UG25BrDPWTe1O-57nNa-53" style="edgeStyle=none;rounded=0;orthogonalLoop=1;jettySize=auto;html=1;entryX=1;entryY=0.5;entryDx=0;entryDy=0;endArrow=none;endFill=0;fontSize=25;" edge="1" source="3UG25BrDPWTe1O-57nNa-54" target="3UG25BrDPWTe1O-57nNa-32" parent="1">
          <mxGeometry relative="1" as="geometry" />
        </mxCell>
        <mxCell id="3UG25BrDPWTe1O-57nNa-54" value="passwword" style="ellipse;whiteSpace=wrap;html=1;fontSize=20;" vertex="1" parent="1">
          <mxGeometry x="570" y="-210" width="120" height="80" as="geometry" />
        </mxCell>
        <mxCell id="3UG25BrDPWTe1O-57nNa-55" style="edgeStyle=none;rounded=0;orthogonalLoop=1;jettySize=auto;html=1;entryX=0.869;entryY=0.002;entryDx=0;entryDy=0;entryPerimeter=0;endArrow=none;endFill=0;fontSize=25;" edge="1" source="3UG25BrDPWTe1O-57nNa-56" target="3UG25BrDPWTe1O-57nNa-32" parent="1">
          <mxGeometry relative="1" as="geometry" />
        </mxCell>
        <mxCell id="3UG25BrDPWTe1O-57nNa-56" value="email" style="ellipse;whiteSpace=wrap;html=1;fontSize=25;" vertex="1" parent="1">
          <mxGeometry x="580" y="-440" width="120" height="80" as="geometry" />
        </mxCell>
        <mxCell id="3UG25BrDPWTe1O-57nNa-57" value="" style="endArrow=none;html=1;fontSize=25;entryX=0.25;entryY=0.125;entryDx=0;entryDy=0;entryPerimeter=0;" edge="1" source="3UG25BrDPWTe1O-57nNa-32" target="3UG25BrDPWTe1O-57nNa-50" parent="1">
          <mxGeometry width="50" height="50" relative="1" as="geometry">
            <mxPoint x="540" y="-130" as="sourcePoint" />
            <mxPoint x="560" y="-140" as="targetPoint" />
          </mxGeometry>
        </mxCell>
        <mxCell id="3UG25BrDPWTe1O-57nNa-63" style="edgeStyle=none;rounded=0;orthogonalLoop=1;jettySize=auto;html=1;endArrow=none;endFill=0;fontSize=20;" edge="1" parent="1" source="3UG25BrDPWTe1O-57nNa-58">
          <mxGeometry relative="1" as="geometry">
            <mxPoint x="1462" y="-800" as="targetPoint" />
          </mxGeometry>
        </mxCell>
        <mxCell id="3UG25BrDPWTe1O-57nNa-58" value="created_at" style="ellipse;whiteSpace=wrap;html=1;fontSize=20;" vertex="1" parent="1">
          <mxGeometry x="1400" y="-1000" width="120" height="80" as="geometry" />
        </mxCell>
        <mxCell id="3UG25BrDPWTe1O-57nNa-64" style="edgeStyle=none;rounded=0;orthogonalLoop=1;jettySize=auto;html=1;entryX=1;entryY=0;entryDx=0;entryDy=0;endArrow=none;endFill=0;fontSize=20;" edge="1" parent="1" source="3UG25BrDPWTe1O-57nNa-59" target="3UG25BrDPWTe1O-57nNa-61">
          <mxGeometry relative="1" as="geometry" />
        </mxCell>
        <mxCell id="3UG25BrDPWTe1O-57nNa-59" value="updated_at" style="ellipse;whiteSpace=wrap;html=1;fontSize=20;" vertex="1" parent="1">
          <mxGeometry x="1600" y="-1000" width="120" height="80" as="geometry" />
        </mxCell>
        <mxCell id="3UG25BrDPWTe1O-57nNa-62" style="edgeStyle=none;rounded=0;orthogonalLoop=1;jettySize=auto;html=1;endArrow=none;endFill=0;fontSize=20;entryX=0;entryY=0;entryDx=0;entryDy=0;" edge="1" parent="1" source="3UG25BrDPWTe1O-57nNa-60" target="3UG25BrDPWTe1O-57nNa-61">
          <mxGeometry relative="1" as="geometry">
            <mxPoint x="1400" y="-790" as="targetPoint" />
          </mxGeometry>
        </mxCell>
        <mxCell id="3UG25BrDPWTe1O-57nNa-60" value="id" style="ellipse;whiteSpace=wrap;html=1;fontSize=20;fontStyle=4" vertex="1" parent="1">
          <mxGeometry x="1200" y="-1000" width="120" height="80" as="geometry" />
        </mxCell>
        <mxCell id="3UG25BrDPWTe1O-57nNa-61" value="user" style="rounded=0;whiteSpace=wrap;html=1;fontSize=20;" vertex="1" parent="1">
          <mxGeometry x="1410" y="-800" width="120" height="60" as="geometry" />
        </mxCell>
        <mxCell id="3UG25BrDPWTe1O-57nNa-78" style="edgeStyle=none;rounded=0;orthogonalLoop=1;jettySize=auto;html=1;entryX=1;entryY=0.75;entryDx=0;entryDy=0;endArrow=none;endFill=0;fontSize=20;" edge="1" parent="1" source="3UG25BrDPWTe1O-57nNa-66" target="3UG25BrDPWTe1O-57nNa-73">
          <mxGeometry relative="1" as="geometry" />
        </mxCell>
        <mxCell id="3UG25BrDPWTe1O-57nNa-66" value="updated_at" style="ellipse;whiteSpace=wrap;html=1;fontSize=20;" vertex="1" parent="1">
          <mxGeometry x="1620" y="-190" width="120" height="80" as="geometry" />
        </mxCell>
        <mxCell id="3UG25BrDPWTe1O-57nNa-77" style="edgeStyle=none;rounded=0;orthogonalLoop=1;jettySize=auto;html=1;entryX=0.5;entryY=1;entryDx=0;entryDy=0;endArrow=none;endFill=0;fontSize=20;" edge="1" parent="1" source="3UG25BrDPWTe1O-57nNa-67" target="3UG25BrDPWTe1O-57nNa-73">
          <mxGeometry relative="1" as="geometry" />
        </mxCell>
        <mxCell id="3UG25BrDPWTe1O-57nNa-67" value="created_at" style="ellipse;whiteSpace=wrap;html=1;fontSize=20;" vertex="1" parent="1">
          <mxGeometry x="1360" y="-190" width="120" height="80" as="geometry" />
        </mxCell>
        <mxCell id="3UG25BrDPWTe1O-57nNa-79" style="edgeStyle=none;rounded=0;orthogonalLoop=1;jettySize=auto;html=1;entryX=0;entryY=0.75;entryDx=0;entryDy=0;endArrow=none;endFill=0;fontSize=20;" edge="1" parent="1" source="3UG25BrDPWTe1O-57nNa-68" target="3UG25BrDPWTe1O-57nNa-73">
          <mxGeometry relative="1" as="geometry" />
        </mxCell>
        <mxCell id="3UG25BrDPWTe1O-57nNa-68" value="featured_image" style="ellipse;whiteSpace=wrap;html=1;fontSize=20;" vertex="1" parent="1">
          <mxGeometry x="1070" y="-190" width="180" height="80" as="geometry" />
        </mxCell>
        <mxCell id="3UG25BrDPWTe1O-57nNa-75" style="edgeStyle=none;rounded=0;orthogonalLoop=1;jettySize=auto;html=1;entryX=1;entryY=0.25;entryDx=0;entryDy=0;endArrow=none;endFill=0;fontSize=20;" edge="1" parent="1" source="3UG25BrDPWTe1O-57nNa-69" target="3UG25BrDPWTe1O-57nNa-73">
          <mxGeometry relative="1" as="geometry" />
        </mxCell>
        <mxCell id="3UG25BrDPWTe1O-57nNa-69" value="slug" style="ellipse;whiteSpace=wrap;html=1;fontSize=20;" vertex="1" parent="1">
          <mxGeometry x="1610" y="-430" width="120" height="80" as="geometry" />
        </mxCell>
        <mxCell id="3UG25BrDPWTe1O-57nNa-76" style="edgeStyle=none;rounded=0;orthogonalLoop=1;jettySize=auto;html=1;entryX=0.5;entryY=0;entryDx=0;entryDy=0;endArrow=none;endFill=0;fontSize=20;" edge="1" parent="1" source="3UG25BrDPWTe1O-57nNa-70" target="3UG25BrDPWTe1O-57nNa-73">
          <mxGeometry relative="1" as="geometry" />
        </mxCell>
        <mxCell id="3UG25BrDPWTe1O-57nNa-70" value="title" style="ellipse;whiteSpace=wrap;html=1;fontSize=20;" vertex="1" parent="1">
          <mxGeometry x="1360" y="-430" width="120" height="80" as="geometry" />
        </mxCell>
        <mxCell id="3UG25BrDPWTe1O-57nNa-74" style="edgeStyle=none;rounded=0;orthogonalLoop=1;jettySize=auto;html=1;entryX=0;entryY=0.25;entryDx=0;entryDy=0;endArrow=none;endFill=0;fontSize=20;" edge="1" parent="1" source="3UG25BrDPWTe1O-57nNa-71" target="3UG25BrDPWTe1O-57nNa-73">
          <mxGeometry relative="1" as="geometry" />
        </mxCell>
        <mxCell id="3UG25BrDPWTe1O-57nNa-71" value="id" style="ellipse;whiteSpace=wrap;html=1;fontSize=20;" vertex="1" parent="1">
          <mxGeometry x="1110" y="-430" width="120" height="80" as="geometry" />
        </mxCell>
        <mxCell id="3UG25BrDPWTe1O-57nNa-73" value="USER" style="rounded=0;whiteSpace=wrap;html=1;fontSize=20;" vertex="1" parent="1">
          <mxGeometry x="1360" y="-290" width="120" height="60" as="geometry" />
        </mxCell>
        <mxCell id="3UG25BrDPWTe1O-57nNa-80" value="USER" style="rounded=0;whiteSpace=wrap;html=1;fontSize=25;" vertex="1" parent="1">
          <mxGeometry x="2160" y="-340" width="160" height="80" as="geometry" />
        </mxCell>
        <mxCell id="3UG25BrDPWTe1O-57nNa-81" style="edgeStyle=none;rounded=0;orthogonalLoop=1;jettySize=auto;html=1;endArrow=none;endFill=0;fontSize=25;" edge="1" source="3UG25BrDPWTe1O-57nNa-82" target="3UG25BrDPWTe1O-57nNa-80" parent="1">
          <mxGeometry relative="1" as="geometry" />
        </mxCell>
        <mxCell id="3UG25BrDPWTe1O-57nNa-82" value="update_at" style="ellipse;whiteSpace=wrap;html=1;fontSize=25;" vertex="1" parent="1">
          <mxGeometry x="1980" y="-250" width="120" height="80" as="geometry" />
        </mxCell>
        <mxCell id="3UG25BrDPWTe1O-57nNa-83" style="edgeStyle=none;rounded=0;orthogonalLoop=1;jettySize=auto;html=1;entryX=1;entryY=0.25;entryDx=0;entryDy=0;endArrow=none;endFill=0;fontSize=25;" edge="1" source="3UG25BrDPWTe1O-57nNa-84" target="3UG25BrDPWTe1O-57nNa-80" parent="1">
          <mxGeometry relative="1" as="geometry" />
        </mxCell>
        <mxCell id="3UG25BrDPWTe1O-57nNa-84" value="published" style="ellipse;whiteSpace=wrap;html=1;fontSize=25;" vertex="1" parent="1">
          <mxGeometry x="2460" y="-350" width="120" height="80" as="geometry" />
        </mxCell>
        <mxCell id="3UG25BrDPWTe1O-57nNa-85" style="edgeStyle=none;rounded=0;orthogonalLoop=1;jettySize=auto;html=1;entryX=0;entryY=0.25;entryDx=0;entryDy=0;endArrow=none;endFill=0;fontSize=25;" edge="1" source="3UG25BrDPWTe1O-57nNa-86" target="3UG25BrDPWTe1O-57nNa-80" parent="1">
          <mxGeometry relative="1" as="geometry" />
        </mxCell>
        <mxCell id="3UG25BrDPWTe1O-57nNa-86" value="id" style="ellipse;whiteSpace=wrap;html=1;fontSize=25;fontStyle=4" vertex="1" parent="1">
          <mxGeometry x="1950" y="-410" width="120" height="80" as="geometry" />
        </mxCell>
        <mxCell id="3UG25BrDPWTe1O-57nNa-87" style="edgeStyle=none;rounded=0;orthogonalLoop=1;jettySize=auto;html=1;entryX=0.5;entryY=0;entryDx=0;entryDy=0;endArrow=none;endFill=0;fontSize=25;" edge="1" source="3UG25BrDPWTe1O-57nNa-88" target="3UG25BrDPWTe1O-57nNa-80" parent="1">
          <mxGeometry relative="1" as="geometry" />
        </mxCell>
        <mxCell id="3UG25BrDPWTe1O-57nNa-88" value="title" style="ellipse;whiteSpace=wrap;html=1;fontSize=25;" vertex="1" parent="1">
          <mxGeometry x="2070" y="-510" width="120" height="80" as="geometry" />
        </mxCell>
        <mxCell id="3UG25BrDPWTe1O-57nNa-89" style="edgeStyle=none;rounded=0;orthogonalLoop=1;jettySize=auto;html=1;entryX=0.75;entryY=0;entryDx=0;entryDy=0;endArrow=none;endFill=0;fontSize=25;" edge="1" source="3UG25BrDPWTe1O-57nNa-90" target="3UG25BrDPWTe1O-57nNa-80" parent="1">
          <mxGeometry relative="1" as="geometry" />
        </mxCell>
        <mxCell id="3UG25BrDPWTe1O-57nNa-90" value="content" style="ellipse;whiteSpace=wrap;html=1;fontSize=25;" vertex="1" parent="1">
          <mxGeometry x="2250" y="-520" width="120" height="80" as="geometry" />
        </mxCell>
        <mxCell id="3UG25BrDPWTe1O-57nNa-92" style="rounded=0;orthogonalLoop=1;jettySize=auto;html=1;entryX=0.417;entryY=0.996;entryDx=0;entryDy=0;fontSize=25;endArrow=none;endFill=0;entryPerimeter=0;" edge="1" source="3UG25BrDPWTe1O-57nNa-93" target="3UG25BrDPWTe1O-57nNa-80" parent="1">
          <mxGeometry relative="1" as="geometry" />
        </mxCell>
        <mxCell id="3UG25BrDPWTe1O-57nNa-93" value="created_at" style="ellipse;whiteSpace=wrap;html=1;fontSize=25;" vertex="1" parent="1">
          <mxGeometry x="2140" y="-190" width="120" height="80" as="geometry" />
        </mxCell>
        <mxCell id="3UG25BrDPWTe1O-57nNa-94" style="edgeStyle=none;rounded=0;orthogonalLoop=1;jettySize=auto;html=1;endArrow=none;endFill=0;fontSize=25;" edge="1" source="3UG25BrDPWTe1O-57nNa-95" target="3UG25BrDPWTe1O-57nNa-80" parent="1">
          <mxGeometry relative="1" as="geometry" />
        </mxCell>
        <mxCell id="3UG25BrDPWTe1O-57nNa-95" value="tag_id" style="ellipse;whiteSpace=wrap;html=1;fontSize=20;" vertex="1" parent="1">
          <mxGeometry x="2320" y="-200" width="120" height="80" as="geometry" />
        </mxCell>
        <mxCell id="3UG25BrDPWTe1O-57nNa-96" style="edgeStyle=none;rounded=0;orthogonalLoop=1;jettySize=auto;html=1;entryX=0.869;entryY=0.002;entryDx=0;entryDy=0;entryPerimeter=0;endArrow=none;endFill=0;fontSize=25;" edge="1" source="3UG25BrDPWTe1O-57nNa-97" target="3UG25BrDPWTe1O-57nNa-80" parent="1">
          <mxGeometry relative="1" as="geometry" />
        </mxCell>
        <mxCell id="3UG25BrDPWTe1O-57nNa-97" value="featured_image" style="ellipse;whiteSpace=wrap;html=1;fontSize=25;" vertex="1" parent="1">
          <mxGeometry x="2400" y="-460" width="200" height="80" as="geometry" />
        </mxCell>
      </root>
    </mxGraphModel>
  </diagram>
</mxfile>
